<?xml version="1.0" encoding="UTF-8" standalone="no"?>
<svg
   xmlns:dc="http://purl.org/dc/elements/1.1/"
   xmlns:cc="http://creativecommons.org/ns#"
   xmlns:rdf="http://www.w3.org/1999/02/22-rdf-syntax-ns#"
   xmlns:svg="http://www.w3.org/2000/svg"
   xmlns="http://www.w3.org/2000/svg"
   xmlns:sodipodi="http://sodipodi.sourceforge.net/DTD/sodipodi-0.dtd"
   xmlns:inkscape="http://www.inkscape.org/namespaces/inkscape"
   inkscape:version="1.0 (4035a4fb49, 2020-05-01)"
   sodipodi:docname="Emblem-generic_train.svg"
   version="1.1"
   width="48px"
   height="48px"
   id="svg1306">
  <sodipodi:namedview
     inkscape:current-layer="svg1306"
     inkscape:window-maximized="1"
     inkscape:window-y="-8"
     inkscape:window-x="-8"
     inkscape:cy="24.500288"
     inkscape:cx="24.000015"
     inkscape:zoom="10.957588"
     showgrid="false"
     id="namedview25"
     inkscape:window-height="705"
     inkscape:window-width="1366"
     inkscape:pageshadow="2"
     inkscape:pageopacity="0"
     guidetolerance="10"
     gridtolerance="10"
     objecttolerance="10"
     borderopacity="1"
     bordercolor="#666666"
     pagecolor="#ffffff" />
  <defs
     id="defs1308">
    <radialGradient
       r="17.143"
       gradientTransform="matrix(1 0 0 .5 0 20)"
       cx="23.857"
       cy="40"
       gradientUnits="userSpaceOnUse"
       id="radialGradient3976">
      <stop
         offset="0"
         id="stop4128" />
      <stop
         offset="1"
         stop-opacity="0"
         id="stop4130" />
    </radialGradient>
    <linearGradient
       x1="43.936"
       y1="53.836"
       x2="20.065"
       gradientUnits="userSpaceOnUse"
       y2="-8.5627"
       id="linearGradient3980">
      <stop
         offset="0"
         stop-color="#ffe69b"
         id="stop2481" />
      <stop
         offset="1"
         stop-color="#fff"
         id="stop2483" />
    </linearGradient>
  </defs>
  <metadata
     id="metadata1311">
    <rdf:RDF>
      <cc:Work
         rdf:about="">
        <dc:format>image/svg+xml</dc:format>
        <dc:type
           rdf:resource="http://purl.org/dc/dcmitype/StillImage" />
        <dc:creator>
          <cc:Agent>
            <dc:title>Rodney Dawes</dc:title>
          </cc:Agent>
        </dc:creator>
        <dc:contributor>
          <cc:Agent>
            <dc:title>Jakub Steiner, Garrett LeSage</dc:title>
          </cc:Agent>
        </dc:contributor>
        <cc:license
           rdf:resource="http://creativecommons.org/licenses/by-sa/2.0/" />
        <dc:title></dc:title>
      </cc:Work>
      <cc:License
         rdf:about="http://creativecommons.org/licenses/by-sa/2.0/">
        <cc:permits
           rdf:resource="http://web.resource.org/cc/Reproduction" />
        <cc:permits
           rdf:resource="http://web.resource.org/cc/Distribution" />
        <cc:requires
           rdf:resource="http://web.resource.org/cc/Notice" />
        <cc:requires
           rdf:resource="http://web.resource.org/cc/Attribution" />
        <cc:permits
           rdf:resource="http://web.resource.org/cc/DerivativeWorks" />
        <cc:requires
           rdf:resource="http://web.resource.org/cc/ShareAlike" />
      </cc:License>
    </rdf:RDF>
  </metadata>
  <g
     id="layer2">
    <path
       fill="url(#radialGradient3976)"
       display="block"
       transform="matrix(1.0706 0 0 .525 -.89276 22.5)"
       d="m41 40a17.143 8.5714 0 1 1 -34.286 0 17.143 8.5714 0 1 1 34.286 0z"
       style="color:#000000"
       opacity=".6"
       id="path6548" />
  </g>
  <g
     id="layer1">
    <g
       id="g4006">
      <path
         style="fill:#3465a4;fill-opacity:1"
         fill="#3465a4"
         stroke-width="1.0864"
         stroke="#204a87"
         transform="matrix(.92049 0 0 .92049 2.3685 .97408)"
         d="m46.857 23.929c0 12.9-10.457 23.357-23.357 23.357s-23.357-10.457-23.357-23.357 10.457-23.357 23.357-23.357 23.357 10.457 23.357 23.357z"
         id="path1314" />
      <path
         stroke-width="1.1703"
         stroke="url(#linearGradient3980)"
         transform="matrix(.85448 0 0 .85448 1.86 .24062)"
         fill-opacity="0"
         d="m49.902 26.635a23.991 23.991 0 1 1 -47.982 0 23.991 23.991 0 1 1 47.982 0z"
         opacity=".34659"
         id="path3560" />
    </g>
  </g>
  <path
     id="path3684"
     opacity="0.25"
     d="M 24,3 C 12.954,3 4,11.954 4,23 c 0,1.6861 0.23214,3.3108 0.625,4.875 3.204,4.7933 13.254,-0.12014 20.219,-5.5938 8.008,-6.2931 17.842,8.3593 19.125,1.4375 0.008,-0.239 0.031,-0.478 0.031,-0.719 0,-11.046 -8.954,-20 -20,-20 z"
     style="fill:#ffffff" />
  <g
     transform="matrix(0.13291281,0,0,0.13291281,10.393436,4.5228885)"
     id="Train">
	<path
   style="fill:#ffffff;fill-opacity:1"
   id="path92"
   d="m 184.873,143.073 0.004,19.965 -21.73,-0.137 c -48.665,0.014 -97.356,-0.232 -146.025,0.137 -0.277,-24.311 0.074,-48.78 -0.066,-73.112 l 0.009,-1.358 C 16.88,78.338 20.259,68.551 23.388,58.962 28.38,45.752 40.958,33.733 55.82,34.252 l -0.145,0.022 c 30.146,-0.009 60.297,0.132 90.443,-0.022 14.863,-0.519 27.439,11.5 32.441,24.71 3.124,9.589 6.504,19.375 6.314,29.606 -0.049,18.162 -0.176,36.325 0,54.505"
   fill="#0180fd" />

	<path
   style="fill:#ffffff;fill-opacity:1"
   id="path94"
   d="m 16.721,168.381 c 44.666,0.435 89.336,-0.066 134.002,0.232 11.457,0.123 22.957,-0.488 34.379,0.712 -0.496,14.198 -4.324,28.67 -13.271,39.925 -2.025,2.553 -5.682,1.818 -8.512,2.162 -41.59,-0.186 -83.176,0.109 -124.748,-0.105 -6.442,0.668 -10.49,-4.971 -12.92,-10.086 -4.796,-10.336 -8.206,-21.436 -8.93,-32.84 z"
   fill="#0180fd" />

	<path
   transform="matrix(7.5237293,0,0,7.5237293,-78.197399,-34.028989)"
   d="M 29.494141 10.353516 L 18.056641 10.384766 C 15.996826 10.384634 14.331046 12.719323 14.294922 15.621094 L 14.289062 15.621094 C 14.289062 15.637149 14.292869 15.651948 14.292969 15.667969 C 14.292869 15.68399 14.289062 15.698789 14.289062 15.714844 L 14.294922 15.714844 C 14.331046 18.616615 15.996826 20.951303 18.056641 20.951172 L 29.494141 20.982422 L 29.658203 20.982422 C 31.736615 20.982422 33.415739 18.606683 33.421875 15.667969 C 33.415739 12.729254 31.736615 10.353516 29.658203 10.353516 L 29.494141 10.353516 z M 33.421875 15.667969 C 33.421886 15.673342 33.423828 15.678217 33.423828 15.683594 L 33.423828 15.667969 L 33.423828 15.652344 C 33.423828 15.657721 33.421886 15.662595 33.421875 15.667969 z "
   style="fill:#678cbb;fill-opacity:1;stroke-width:0.132913"
   id="path96" />

	<path
   d="M 98.316348,50.855433 V 83.859912 116.8497 h 5.848522 V 83.859912 50.855433 Z"
   style="fill:#ffffff;fill-opacity:1;stroke-width:1"
   id="rect98" />

	<path
   id="path100"
   d="m 47.579,143.073 c 0,7.08 -5.739,12.823 -12.819,12.823 -7.088,0 -12.822,-5.743 -12.822,-12.823 0,-7.084 5.734,-12.823 12.822,-12.823 7.08,0 12.819,5.739 12.819,12.823 z"
   stroke-width="2"
   stroke="#0145fd"
   fill="#ffffff" />

	<path
   id="path102"
   d="m 178.853,143.073 c 0,7.08 -5.735,12.823 -12.819,12.823 -7.084,0 -12.822,-5.743 -12.822,-12.823 0,-7.084 5.738,-12.823 12.822,-12.823 7.084,0 12.819,5.739 12.819,12.823 z"
   stroke-width="2"
   stroke="#0145fd"
   fill="#ffffff" />

	<polygon
   style="fill:#ffffff;fill-opacity:1"
   id="polygon104"
   points="69.775,0.062 69.775,0.105 47.135,11.14 49.332,15.64 69.775,5.673 69.775,6.368 69.775,31.298 76.583,31.298 76.583,6.368 126.264,6.368 126.264,31.298 133.07,31.298 133.07,6.368 133.07,5.55 153.773,15.64 155.971,11.14 133.119,0 133.07,0.097 133.07,0.062 70.018,0.062 69.991,0 69.863,0.062 "
   fill="#0180fd" />

	<polygon
   style="fill:#ffffff;fill-opacity:1"
   id="polygon106"
   points="62.902,215.952 40.996,240.487 45.9,245.434 58.262,231.592 145.371,231.592 157.732,245.434 162.641,240.487 140.73,215.952 135.821,220.9 139.982,225.558 63.646,225.558 67.812,220.9 "
   fill="#0180fd" />

<polygon
   style="fill:#ffffff;fill-opacity:1"
   fill="#0180fd"
   points="67.812,220.9 62.902,215.952 40.996,240.487 45.9,245.434 58.262,231.592 145.371,231.592 157.732,245.434 162.641,240.487 140.73,215.952 135.821,220.9 139.982,225.558 63.646,225.558 "
   id="polygon136"
   transform="matrix(1.4494709,0,0,1,-45.167836,19.876)" />
</g>
</svg>
